<svg width="29" height="39" viewBox="0 0 29 39" fill="none" xmlns="http://www.w3.org/2000/svg">
<path fill-rule="evenodd" clip-rule="evenodd" d="M6.0008 3.94865C6.0008 2.14681 7.47182 0.675781 9.27366 0.675781C11.0755 0.675781 12.5465 2.14681 12.5465 3.94865V11.7107C13.1081 11.258 13.8212 10.9864 14.5954 10.9864C16.1752 10.9864 17.5006 12.1171 17.8034 13.6101C18.3744 13.1253 19.1129 12.8321 19.9172 12.8321C21.4081 12.8321 22.6725 13.8392 23.0645 15.2075C23.6435 14.6913 24.4058 14.3768 25.239 14.3768C27.0408 14.3768 28.5118 15.8478 28.5118 17.6496V31.1817C28.5118 31.6719 28.4009 32.1406 28.2065 32.5579L27.0209 35.1883L27.0206 35.1888C26.1752 37.0599 24.3147 38.2635 22.2599 38.2635H12.3755C12.1537 38.2841 11.9297 38.2831 11.7081 38.2603C11.7065 38.2602 11.705 38.26 11.7034 38.2598C10.8342 38.1639 10.0024 37.7253 9.4357 36.9717C9.4196 36.9503 9.40492 36.9278 9.39176 36.9045L1.11443 22.228C0.0614482 20.7881 0.367124 18.7516 1.79495 17.6793C1.80411 17.6724 1.81347 17.6658 1.823 17.6594C3.11783 16.7962 4.86055 16.9527 6.0008 17.9491V3.94865ZM23.1901 17.6496C23.1901 16.5238 24.1131 15.6007 25.239 15.6007C26.3648 15.6007 27.2879 16.5238 27.2879 17.6496V31.1817C27.2879 31.4879 27.2184 31.7815 27.0958 32.0436C27.0946 32.0462 27.0934 32.0488 27.0922 32.0514L25.9052 34.6848C25.2575 36.1184 23.8328 37.0396 22.2599 37.0396H12.3458C12.3249 37.0396 12.3041 37.0407 12.2834 37.0428C12.1347 37.058 11.9839 37.0581 11.8353 37.043C11.2973 36.983 10.7893 36.7174 10.4368 36.2659L2.16187 21.5937C2.14877 21.5705 2.13417 21.5481 2.11816 21.5268C1.44676 20.6329 1.62694 19.3479 2.51627 18.6683C3.46409 18.0478 4.80851 18.281 5.49163 19.1894C5.49165 19.1894 5.49166 19.1894 5.49168 19.1894C5.49179 19.1896 5.49189 19.1897 5.492 19.1899L6.12319 20.0315C6.28124 20.2422 6.55641 20.3281 6.8063 20.2448C7.0562 20.1615 7.22476 19.9277 7.22476 19.6643V3.94865C7.22476 2.82278 8.1478 1.89974 9.27366 1.89974C10.3995 1.89974 11.3226 2.82278 11.3226 3.94865V14.2593C11.3226 14.5973 11.5966 14.8713 11.9345 14.8713C12.2725 14.8713 12.5465 14.5973 12.5465 14.2593C12.5465 13.1334 13.4696 12.2104 14.5954 12.2104C15.7213 12.2104 16.6443 13.1334 16.6443 14.2593V16.105C16.6443 16.443 16.9183 16.717 17.2563 16.717C17.5943 16.717 17.8683 16.443 17.8683 16.105C17.8683 14.9791 18.7913 14.0561 19.9172 14.0561C21.0431 14.0561 21.9661 14.9791 21.9661 16.105V17.6496C21.9661 17.9876 22.2401 18.2616 22.5781 18.2616C22.9161 18.2616 23.1901 17.9876 23.1901 17.6496Z" fill="#231F20"/>
<path fill-rule="evenodd" clip-rule="evenodd" d="M11.9321 13.6448C12.2701 13.6448 12.5441 13.9188 12.5441 14.2568V17.9433C12.5441 18.2813 12.2701 18.5553 11.9321 18.5553C11.5941 18.5553 11.3201 18.2813 11.3201 17.9433V14.2568C11.3201 13.9188 11.5941 13.6448 11.9321 13.6448Z" fill="#231F20"/>
<path fill-rule="evenodd" clip-rule="evenodd" d="M17.2539 15.4929C17.5919 15.4929 17.8658 15.7669 17.8658 16.1049V19.8894C17.8658 20.2274 17.5919 20.5014 17.2539 20.5014C16.9159 20.5014 16.6419 20.2274 16.6419 19.8894V16.1049C16.6419 15.7669 16.9159 15.4929 17.2539 15.4929Z" fill="#231F20"/>
<path fill-rule="evenodd" clip-rule="evenodd" d="M22.578 17.0378C22.916 17.0378 23.19 17.3118 23.19 17.6498V22.1271C23.19 22.465 22.916 22.739 22.578 22.739C22.24 22.739 21.966 22.465 21.966 22.1271V17.6498C21.966 17.3118 22.24 17.0378 22.578 17.0378Z" fill="#231F20"/>
</svg>
